<mxfile host="app.diagrams.net" modified="2024-04-10T13:38:41.056Z" agent="Mozilla/5.0 (Windows NT 10.0; Win64; x64) AppleWebKit/537.36 (KHTML, like Gecko) Chrome/123.0.0.0 Safari/537.36" etag="B7pwDFqe992zISesJZin" version="24.2.2" type="device">
  <diagram name="PÃ¡gina-1" id="mBDjjEcw4cKG5DQh-Xl2">
    <mxGraphModel dx="2081" dy="1804" grid="1" gridSize="10" guides="1" tooltips="1" connect="1" arrows="1" fold="1" page="1" pageScale="1" pageWidth="827" pageHeight="1169" math="0" shadow="0">
      <root>
        <mxCell id="0" />
        <mxCell id="1" parent="0" />
        <mxCell id="X4g94l9QdzFIB3vsX_Z2-153" style="edgeStyle=orthogonalEdgeStyle;rounded=0;orthogonalLoop=1;jettySize=auto;html=1;endArrow=none;endFill=0;startArrow=baseDash;startFill=0;" parent="1" source="X4g94l9QdzFIB3vsX_Z2-1" target="X4g94l9QdzFIB3vsX_Z2-152" edge="1">
          <mxGeometry relative="1" as="geometry" />
        </mxCell>
        <mxCell id="X4g94l9QdzFIB3vsX_Z2-1" value="Senior Teacher" style="rounded=0;whiteSpace=wrap;html=1;strokeWidth=3;" parent="1" vertex="1">
          <mxGeometry x="190" y="80" width="120" height="60" as="geometry" />
        </mxCell>
        <mxCell id="X4g94l9QdzFIB3vsX_Z2-10" value="" style="rounded=0;orthogonalLoop=1;jettySize=auto;html=1;endArrow=none;endFill=0;" parent="1" source="X4g94l9QdzFIB3vsX_Z2-3" target="X4g94l9QdzFIB3vsX_Z2-11" edge="1">
          <mxGeometry relative="1" as="geometry" />
        </mxCell>
        <mxCell id="X4g94l9QdzFIB3vsX_Z2-3" value="name" style="ellipse;whiteSpace=wrap;html=1;" parent="1" vertex="1">
          <mxGeometry x="-600" y="90" width="120" height="50" as="geometry" />
        </mxCell>
        <mxCell id="X4g94l9QdzFIB3vsX_Z2-269" style="edgeStyle=orthogonalEdgeStyle;rounded=0;orthogonalLoop=1;jettySize=auto;html=1;endArrow=none;endFill=0;" parent="1" source="X4g94l9QdzFIB3vsX_Z2-11" target="X4g94l9QdzFIB3vsX_Z2-268" edge="1">
          <mxGeometry relative="1" as="geometry" />
        </mxCell>
        <mxCell id="IT_xZYxQ61ZV-D8Yhbmj-3" style="edgeStyle=orthogonalEdgeStyle;rounded=0;orthogonalLoop=1;jettySize=auto;html=1;endArrow=none;endFill=0;" edge="1" parent="1" source="X4g94l9QdzFIB3vsX_Z2-11" target="IT_xZYxQ61ZV-D8Yhbmj-1">
          <mxGeometry relative="1" as="geometry">
            <Array as="points">
              <mxPoint x="-330" y="70" />
              <mxPoint x="-330" y="70" />
            </Array>
          </mxGeometry>
        </mxCell>
        <mxCell id="X4g94l9QdzFIB3vsX_Z2-11" value="Teacher" style="rounded=0;whiteSpace=wrap;html=1;strokeWidth=3;" parent="1" vertex="1">
          <mxGeometry x="-390" y="-33.25" width="120" height="60" as="geometry" />
        </mxCell>
        <mxCell id="X4g94l9QdzFIB3vsX_Z2-20" style="rounded=0;orthogonalLoop=1;jettySize=auto;html=1;endArrow=none;endFill=0;" parent="1" source="X4g94l9QdzFIB3vsX_Z2-12" target="X4g94l9QdzFIB3vsX_Z2-11" edge="1">
          <mxGeometry relative="1" as="geometry" />
        </mxCell>
        <mxCell id="X4g94l9QdzFIB3vsX_Z2-12" value="&lt;u&gt;teacherId&lt;/u&gt;" style="ellipse;whiteSpace=wrap;html=1;" parent="1" vertex="1">
          <mxGeometry x="-600" y="-63.25" width="120" height="50" as="geometry" />
        </mxCell>
        <mxCell id="X4g94l9QdzFIB3vsX_Z2-24" value="" style="rounded=0;orthogonalLoop=1;jettySize=auto;html=1;endArrow=none;endFill=0;" parent="1" source="X4g94l9QdzFIB3vsX_Z2-15" target="X4g94l9QdzFIB3vsX_Z2-11" edge="1">
          <mxGeometry relative="1" as="geometry" />
        </mxCell>
        <mxCell id="X4g94l9QdzFIB3vsX_Z2-15" value="dept" style="ellipse;whiteSpace=wrap;html=1;" parent="1" vertex="1">
          <mxGeometry x="-600" y="-133.25" width="120" height="50" as="geometry" />
        </mxCell>
        <mxCell id="X4g94l9QdzFIB3vsX_Z2-23" style="rounded=0;orthogonalLoop=1;jettySize=auto;html=1;endArrow=none;endFill=0;" parent="1" source="X4g94l9QdzFIB3vsX_Z2-19" target="X4g94l9QdzFIB3vsX_Z2-11" edge="1">
          <mxGeometry relative="1" as="geometry" />
        </mxCell>
        <mxCell id="X4g94l9QdzFIB3vsX_Z2-19" value="division" style="ellipse;whiteSpace=wrap;html=1;" parent="1" vertex="1">
          <mxGeometry x="-600" y="16.75" width="120" height="50" as="geometry" />
        </mxCell>
        <mxCell id="X4g94l9QdzFIB3vsX_Z2-161" style="edgeStyle=orthogonalEdgeStyle;rounded=0;orthogonalLoop=1;jettySize=auto;html=1;endArrow=none;endFill=0;" parent="1" source="X4g94l9QdzFIB3vsX_Z2-25" target="X4g94l9QdzFIB3vsX_Z2-159" edge="1">
          <mxGeometry relative="1" as="geometry" />
        </mxCell>
        <mxCell id="X4g94l9QdzFIB3vsX_Z2-25" value="Programme" style="rounded=0;whiteSpace=wrap;html=1;strokeWidth=3;" parent="1" vertex="1">
          <mxGeometry x="680" y="80" width="120" height="60" as="geometry" />
        </mxCell>
        <mxCell id="X4g94l9QdzFIB3vsX_Z2-33" style="rounded=0;orthogonalLoop=1;jettySize=auto;html=1;endArrow=none;endFill=0;" parent="1" source="X4g94l9QdzFIB3vsX_Z2-26" target="X4g94l9QdzFIB3vsX_Z2-25" edge="1">
          <mxGeometry relative="1" as="geometry" />
        </mxCell>
        <mxCell id="X4g94l9QdzFIB3vsX_Z2-26" value="&lt;u&gt;programmeCode&lt;/u&gt;" style="ellipse;whiteSpace=wrap;html=1;" parent="1" vertex="1">
          <mxGeometry x="550" y="-30" width="120" height="50" as="geometry" />
        </mxCell>
        <mxCell id="X4g94l9QdzFIB3vsX_Z2-34" value="" style="rounded=0;orthogonalLoop=1;jettySize=auto;html=1;endArrow=none;endFill=0;" parent="1" source="X4g94l9QdzFIB3vsX_Z2-27" target="X4g94l9QdzFIB3vsX_Z2-25" edge="1">
          <mxGeometry relative="1" as="geometry" />
        </mxCell>
        <mxCell id="X4g94l9QdzFIB3vsX_Z2-27" value="ProgrammeName" style="ellipse;whiteSpace=wrap;html=1;" parent="1" vertex="1">
          <mxGeometry x="520" y="192" width="120" height="50" as="geometry" />
        </mxCell>
        <mxCell id="X4g94l9QdzFIB3vsX_Z2-31" style="rounded=0;orthogonalLoop=1;jettySize=auto;html=1;endArrow=none;endFill=0;" parent="1" source="X4g94l9QdzFIB3vsX_Z2-28" target="X4g94l9QdzFIB3vsX_Z2-25" edge="1">
          <mxGeometry relative="1" as="geometry" />
        </mxCell>
        <mxCell id="X4g94l9QdzFIB3vsX_Z2-28" value="dept" style="ellipse;whiteSpace=wrap;html=1;" parent="1" vertex="1">
          <mxGeometry x="730" y="-30" width="120" height="50" as="geometry" />
        </mxCell>
        <mxCell id="X4g94l9QdzFIB3vsX_Z2-35" value="Course" style="rounded=0;whiteSpace=wrap;html=1;strokeWidth=3;" parent="1" vertex="1">
          <mxGeometry x="1240" y="75" width="120" height="60" as="geometry" />
        </mxCell>
        <mxCell id="X4g94l9QdzFIB3vsX_Z2-36" style="rounded=0;orthogonalLoop=1;jettySize=auto;html=1;endArrow=none;endFill=0;" parent="1" source="X4g94l9QdzFIB3vsX_Z2-37" target="X4g94l9QdzFIB3vsX_Z2-35" edge="1">
          <mxGeometry relative="1" as="geometry" />
        </mxCell>
        <mxCell id="X4g94l9QdzFIB3vsX_Z2-37" value="&lt;u&gt;courseCode&lt;/u&gt;" style="ellipse;whiteSpace=wrap;html=1;" parent="1" vertex="1">
          <mxGeometry x="1470" y="70" width="120" height="50" as="geometry" />
        </mxCell>
        <mxCell id="X4g94l9QdzFIB3vsX_Z2-38" value="" style="rounded=0;orthogonalLoop=1;jettySize=auto;html=1;endArrow=none;endFill=0;" parent="1" source="X4g94l9QdzFIB3vsX_Z2-39" target="X4g94l9QdzFIB3vsX_Z2-35" edge="1">
          <mxGeometry relative="1" as="geometry" />
        </mxCell>
        <mxCell id="X4g94l9QdzFIB3vsX_Z2-39" value="courseName" style="ellipse;whiteSpace=wrap;html=1;" parent="1" vertex="1">
          <mxGeometry x="1470" y="-15" width="120" height="50" as="geometry" />
        </mxCell>
        <mxCell id="X4g94l9QdzFIB3vsX_Z2-40" style="rounded=0;orthogonalLoop=1;jettySize=auto;html=1;endArrow=none;endFill=0;" parent="1" source="X4g94l9QdzFIB3vsX_Z2-41" target="X4g94l9QdzFIB3vsX_Z2-35" edge="1">
          <mxGeometry relative="1" as="geometry" />
        </mxCell>
        <mxCell id="X4g94l9QdzFIB3vsX_Z2-41" value="credits" style="ellipse;whiteSpace=wrap;html=1;" parent="1" vertex="1">
          <mxGeometry x="1470" y="220" width="120" height="50" as="geometry" />
        </mxCell>
        <mxCell id="X4g94l9QdzFIB3vsX_Z2-42" style="rounded=0;orthogonalLoop=1;jettySize=auto;html=1;endArrow=none;endFill=0;" parent="1" source="X4g94l9QdzFIB3vsX_Z2-43" target="X4g94l9QdzFIB3vsX_Z2-35" edge="1">
          <mxGeometry relative="1" as="geometry" />
        </mxCell>
        <mxCell id="X4g94l9QdzFIB3vsX_Z2-43" value="level" style="ellipse;whiteSpace=wrap;html=1;" parent="1" vertex="1">
          <mxGeometry x="1480" y="-95.25" width="120" height="50" as="geometry" />
        </mxCell>
        <mxCell id="X4g94l9QdzFIB3vsX_Z2-45" style="rounded=0;orthogonalLoop=1;jettySize=auto;html=1;endArrow=none;endFill=0;" parent="1" source="X4g94l9QdzFIB3vsX_Z2-44" target="X4g94l9QdzFIB3vsX_Z2-35" edge="1">
          <mxGeometry relative="1" as="geometry" />
        </mxCell>
        <mxCell id="X4g94l9QdzFIB3vsX_Z2-44" value="dept" style="ellipse;whiteSpace=wrap;html=1;" parent="1" vertex="1">
          <mxGeometry x="1470" y="140" width="120" height="50" as="geometry" />
        </mxCell>
        <mxCell id="X4g94l9QdzFIB3vsX_Z2-47" style="rounded=0;orthogonalLoop=1;jettySize=auto;html=1;endArrow=none;endFill=0;" parent="1" source="X4g94l9QdzFIB3vsX_Z2-46" target="X4g94l9QdzFIB3vsX_Z2-35" edge="1">
          <mxGeometry relative="1" as="geometry" />
        </mxCell>
        <mxCell id="X4g94l9QdzFIB3vsX_Z2-46" value="division" style="ellipse;whiteSpace=wrap;html=1;" parent="1" vertex="1">
          <mxGeometry x="1480" y="-180" width="120" height="50" as="geometry" />
        </mxCell>
        <mxCell id="X4g94l9QdzFIB3vsX_Z2-171" style="rounded=0;orthogonalLoop=1;jettySize=auto;html=1;entryX=0;entryY=1;entryDx=0;entryDy=0;endArrow=none;endFill=0;" parent="1" source="X4g94l9QdzFIB3vsX_Z2-50" target="X4g94l9QdzFIB3vsX_Z2-167" edge="1">
          <mxGeometry relative="1" as="geometry" />
        </mxCell>
        <mxCell id="X4g94l9QdzFIB3vsX_Z2-174" style="rounded=0;orthogonalLoop=1;jettySize=auto;html=1;endArrow=none;endFill=0;" parent="1" source="X4g94l9QdzFIB3vsX_Z2-50" target="X4g94l9QdzFIB3vsX_Z2-173" edge="1">
          <mxGeometry relative="1" as="geometry" />
        </mxCell>
        <mxCell id="X4g94l9QdzFIB3vsX_Z2-50" value="" style="rounded=0;whiteSpace=wrap;html=1;strokeWidth=3;" parent="1" vertex="1">
          <mxGeometry x="955" y="342" width="145" height="85" as="geometry" />
        </mxCell>
        <mxCell id="X4g94l9QdzFIB3vsX_Z2-55" style="rounded=0;orthogonalLoop=1;jettySize=auto;html=1;endArrow=none;endFill=0;" parent="1" source="X4g94l9QdzFIB3vsX_Z2-56" target="X4g94l9QdzFIB3vsX_Z2-50" edge="1">
          <mxGeometry relative="1" as="geometry" />
        </mxCell>
        <mxCell id="X4g94l9QdzFIB3vsX_Z2-56" value="&lt;u&gt;academicYear&lt;/u&gt;" style="ellipse;whiteSpace=wrap;html=1;" parent="1" vertex="1">
          <mxGeometry x="800" y="354.5" width="120" height="50" as="geometry" />
        </mxCell>
        <mxCell id="X4g94l9QdzFIB3vsX_Z2-57" style="rounded=0;orthogonalLoop=1;jettySize=auto;html=1;endArrow=none;endFill=0;" parent="1" source="X4g94l9QdzFIB3vsX_Z2-58" target="X4g94l9QdzFIB3vsX_Z2-50" edge="1">
          <mxGeometry relative="1" as="geometry">
            <mxPoint x="1154" y="474.88636363636397" as="targetPoint" />
          </mxGeometry>
        </mxCell>
        <mxCell id="X4g94l9QdzFIB3vsX_Z2-58" value="studyYear" style="ellipse;whiteSpace=wrap;html=1;" parent="1" vertex="1">
          <mxGeometry x="970" y="242" width="120" height="50" as="geometry" />
        </mxCell>
        <mxCell id="X4g94l9QdzFIB3vsX_Z2-61" style="rounded=0;orthogonalLoop=1;jettySize=auto;html=1;endArrow=none;endFill=0;" parent="1" source="X4g94l9QdzFIB3vsX_Z2-62" target="X4g94l9QdzFIB3vsX_Z2-50" edge="1">
          <mxGeometry relative="1" as="geometry" />
        </mxCell>
        <mxCell id="X4g94l9QdzFIB3vsX_Z2-62" value="courseType" style="ellipse;whiteSpace=wrap;html=1;" parent="1" vertex="1">
          <mxGeometry x="1130" y="360" width="120" height="50" as="geometry" />
        </mxCell>
        <mxCell id="X4g94l9QdzFIB3vsX_Z2-65" style="edgeStyle=orthogonalEdgeStyle;rounded=0;orthogonalLoop=1;jettySize=auto;html=1;exitX=0.5;exitY=1;exitDx=0;exitDy=0;" parent="1" edge="1">
          <mxGeometry relative="1" as="geometry">
            <mxPoint x="1262.5" y="310" as="sourcePoint" />
            <mxPoint x="1262.5" y="310" as="targetPoint" />
          </mxGeometry>
        </mxCell>
        <mxCell id="X4g94l9QdzFIB3vsX_Z2-189" style="edgeStyle=orthogonalEdgeStyle;rounded=0;orthogonalLoop=1;jettySize=auto;html=1;endArrow=none;endFill=0;" parent="1" target="X4g94l9QdzFIB3vsX_Z2-186" edge="1">
          <mxGeometry relative="1" as="geometry">
            <mxPoint x="730" y="-265.1851851851852" as="sourcePoint" />
          </mxGeometry>
        </mxCell>
        <mxCell id="X4g94l9QdzFIB3vsX_Z2-70" style="rounded=0;orthogonalLoop=1;jettySize=auto;html=1;endArrow=none;endFill=0;" parent="1" source="X4g94l9QdzFIB3vsX_Z2-71" edge="1">
          <mxGeometry relative="1" as="geometry">
            <mxPoint x="715.1127819548872" y="-295.2499999999998" as="targetPoint" />
          </mxGeometry>
        </mxCell>
        <mxCell id="X4g94l9QdzFIB3vsX_Z2-71" value="studyPeriod" style="ellipse;whiteSpace=wrap;html=1;" parent="1" vertex="1">
          <mxGeometry x="770" y="-510" width="120" height="50" as="geometry" />
        </mxCell>
        <mxCell id="X4g94l9QdzFIB3vsX_Z2-72" style="rounded=0;orthogonalLoop=1;jettySize=auto;html=1;endArrow=none;endFill=0;" parent="1" source="X4g94l9QdzFIB3vsX_Z2-73" target="X4g94l9QdzFIB3vsX_Z2-194" edge="1">
          <mxGeometry relative="1" as="geometry">
            <mxPoint x="670" y="-295.2499999999998" as="targetPoint" />
          </mxGeometry>
        </mxCell>
        <mxCell id="X4g94l9QdzFIB3vsX_Z2-73" value="academicYear" style="ellipse;whiteSpace=wrap;html=1;" parent="1" vertex="1">
          <mxGeometry x="610" y="-520" width="120" height="50" as="geometry" />
        </mxCell>
        <mxCell id="X4g94l9QdzFIB3vsX_Z2-74" style="rounded=0;orthogonalLoop=1;jettySize=auto;html=1;endArrow=none;endFill=0;" parent="1" source="X4g94l9QdzFIB3vsX_Z2-75" target="X4g94l9QdzFIB3vsX_Z2-194" edge="1">
          <mxGeometry relative="1" as="geometry">
            <mxPoint x="623.0827067669172" y="-295.2499999999998" as="targetPoint" />
          </mxGeometry>
        </mxCell>
        <mxCell id="X4g94l9QdzFIB3vsX_Z2-75" value="instanceId" style="ellipse;whiteSpace=wrap;html=1;fontStyle=4" parent="1" vertex="1">
          <mxGeometry x="720" y="-609" width="120" height="50" as="geometry" />
        </mxCell>
        <mxCell id="X4g94l9QdzFIB3vsX_Z2-78" style="edgeStyle=orthogonalEdgeStyle;rounded=0;orthogonalLoop=1;jettySize=auto;html=1;exitX=0.5;exitY=1;exitDx=0;exitDy=0;" parent="1" source="X4g94l9QdzFIB3vsX_Z2-75" target="X4g94l9QdzFIB3vsX_Z2-75" edge="1">
          <mxGeometry relative="1" as="geometry" />
        </mxCell>
        <mxCell id="X4g94l9QdzFIB3vsX_Z2-223" style="edgeStyle=orthogonalEdgeStyle;rounded=0;orthogonalLoop=1;jettySize=auto;html=1;" parent="1" source="X4g94l9QdzFIB3vsX_Z2-225" target="X4g94l9QdzFIB3vsX_Z2-218" edge="1">
          <mxGeometry relative="1" as="geometry">
            <mxPoint x="137.5" y="-357.75" as="sourcePoint" />
          </mxGeometry>
        </mxCell>
        <mxCell id="X4g94l9QdzFIB3vsX_Z2-112" style="edgeStyle=orthogonalEdgeStyle;rounded=0;orthogonalLoop=1;jettySize=auto;html=1;exitX=0.5;exitY=1;exitDx=0;exitDy=0;" parent="1" edge="1">
          <mxGeometry relative="1" as="geometry">
            <mxPoint x="380" y="414.5" as="sourcePoint" />
            <mxPoint x="380" y="414.5" as="targetPoint" />
          </mxGeometry>
        </mxCell>
        <mxCell id="X4g94l9QdzFIB3vsX_Z2-114" style="rounded=0;orthogonalLoop=1;jettySize=auto;html=1;endArrow=none;endFill=0;" parent="1" source="X4g94l9QdzFIB3vsX_Z2-113" target="X4g94l9QdzFIB3vsX_Z2-225" edge="1">
          <mxGeometry relative="1" as="geometry">
            <mxPoint x="17.5" y="-334.9330985915494" as="targetPoint" />
          </mxGeometry>
        </mxCell>
        <mxCell id="X4g94l9QdzFIB3vsX_Z2-113" value="hours" style="ellipse;whiteSpace=wrap;html=1;" parent="1" vertex="1">
          <mxGeometry x="-160" y="-330" width="120" height="50" as="geometry" />
        </mxCell>
        <mxCell id="X4g94l9QdzFIB3vsX_Z2-243" style="edgeStyle=orthogonalEdgeStyle;rounded=0;orthogonalLoop=1;jettySize=auto;html=1;endArrow=none;endFill=0;" parent="1" source="X4g94l9QdzFIB3vsX_Z2-124" target="X4g94l9QdzFIB3vsX_Z2-242" edge="1">
          <mxGeometry relative="1" as="geometry" />
        </mxCell>
        <mxCell id="X4g94l9QdzFIB3vsX_Z2-257" style="edgeStyle=orthogonalEdgeStyle;rounded=0;orthogonalLoop=1;jettySize=auto;html=1;endArrow=none;endFill=0;" parent="1" source="X4g94l9QdzFIB3vsX_Z2-124" target="X4g94l9QdzFIB3vsX_Z2-255" edge="1">
          <mxGeometry relative="1" as="geometry" />
        </mxCell>
        <mxCell id="X4g94l9QdzFIB3vsX_Z2-124" value="Student" style="rounded=0;whiteSpace=wrap;html=1;strokeWidth=3;" parent="1" vertex="1">
          <mxGeometry x="967.5" y="675" width="120" height="60" as="geometry" />
        </mxCell>
        <mxCell id="X4g94l9QdzFIB3vsX_Z2-125" style="rounded=0;orthogonalLoop=1;jettySize=auto;html=1;endArrow=none;endFill=0;" parent="1" source="X4g94l9QdzFIB3vsX_Z2-126" target="X4g94l9QdzFIB3vsX_Z2-124" edge="1">
          <mxGeometry relative="1" as="geometry" />
        </mxCell>
        <mxCell id="X4g94l9QdzFIB3vsX_Z2-126" value="&lt;u&gt;studentId&lt;/u&gt;" style="ellipse;whiteSpace=wrap;html=1;" parent="1" vertex="1">
          <mxGeometry x="1140" y="610" width="120" height="50" as="geometry" />
        </mxCell>
        <mxCell id="X4g94l9QdzFIB3vsX_Z2-127" style="rounded=0;orthogonalLoop=1;jettySize=auto;html=1;endArrow=none;endFill=0;" parent="1" source="X4g94l9QdzFIB3vsX_Z2-128" target="X4g94l9QdzFIB3vsX_Z2-124" edge="1">
          <mxGeometry relative="1" as="geometry" />
        </mxCell>
        <mxCell id="X4g94l9QdzFIB3vsX_Z2-128" value="name" style="ellipse;whiteSpace=wrap;html=1;" parent="1" vertex="1">
          <mxGeometry x="1140" y="680" width="120" height="50" as="geometry" />
        </mxCell>
        <mxCell id="X4g94l9QdzFIB3vsX_Z2-134" style="rounded=0;orthogonalLoop=1;jettySize=auto;html=1;endArrow=none;endFill=0;" parent="1" source="X4g94l9QdzFIB3vsX_Z2-132" target="X4g94l9QdzFIB3vsX_Z2-124" edge="1">
          <mxGeometry relative="1" as="geometry" />
        </mxCell>
        <mxCell id="X4g94l9QdzFIB3vsX_Z2-132" value="graduated" style="ellipse;whiteSpace=wrap;html=1;" parent="1" vertex="1">
          <mxGeometry x="1140" y="750" width="120" height="50" as="geometry" />
        </mxCell>
        <mxCell id="X4g94l9QdzFIB3vsX_Z2-261" style="rounded=0;orthogonalLoop=1;jettySize=auto;html=1;endArrow=none;endFill=0;" parent="1" source="X4g94l9QdzFIB3vsX_Z2-141" target="X4g94l9QdzFIB3vsX_Z2-252" edge="1">
          <mxGeometry relative="1" as="geometry" />
        </mxCell>
        <mxCell id="X4g94l9QdzFIB3vsX_Z2-141" value="status" style="ellipse;whiteSpace=wrap;html=1;" parent="1" vertex="1">
          <mxGeometry x="190" y="449" width="120" height="50" as="geometry" />
        </mxCell>
        <mxCell id="X4g94l9QdzFIB3vsX_Z2-262" style="rounded=0;orthogonalLoop=1;jettySize=auto;html=1;endArrow=none;endFill=0;" parent="1" source="X4g94l9QdzFIB3vsX_Z2-143" target="X4g94l9QdzFIB3vsX_Z2-252" edge="1">
          <mxGeometry relative="1" as="geometry" />
        </mxCell>
        <mxCell id="X4g94l9QdzFIB3vsX_Z2-143" value="grade" style="ellipse;whiteSpace=wrap;html=1;" parent="1" vertex="1">
          <mxGeometry x="190" y="511.5" width="120" height="50" as="geometry" />
        </mxCell>
        <mxCell id="X4g94l9QdzFIB3vsX_Z2-154" style="edgeStyle=orthogonalEdgeStyle;rounded=0;orthogonalLoop=1;jettySize=auto;html=1;endArrow=none;endFill=0;" parent="1" source="X4g94l9QdzFIB3vsX_Z2-152" target="X4g94l9QdzFIB3vsX_Z2-25" edge="1">
          <mxGeometry relative="1" as="geometry" />
        </mxCell>
        <mxCell id="X4g94l9QdzFIB3vsX_Z2-152" value="oversees" style="rhombus;whiteSpace=wrap;html=1;" parent="1" vertex="1">
          <mxGeometry x="444" y="70" width="140" height="80" as="geometry" />
        </mxCell>
        <mxCell id="X4g94l9QdzFIB3vsX_Z2-157" value="" style="curved=1;endArrow=none;html=1;rounded=0;endFill=0;strokeWidth=3;" parent="1" edge="1">
          <mxGeometry width="50" height="50" relative="1" as="geometry">
            <mxPoint x="322" y="121" as="sourcePoint" />
            <mxPoint x="322" y="100" as="targetPoint" />
            <Array as="points">
              <mxPoint x="312" y="121" />
              <mxPoint x="312" y="101" />
            </Array>
          </mxGeometry>
        </mxCell>
        <mxCell id="X4g94l9QdzFIB3vsX_Z2-162" style="rounded=0;orthogonalLoop=1;jettySize=auto;html=1;endArrow=none;endFill=0;" parent="1" source="X4g94l9QdzFIB3vsX_Z2-159" target="X4g94l9QdzFIB3vsX_Z2-35" edge="1">
          <mxGeometry relative="1" as="geometry" />
        </mxCell>
        <mxCell id="X4g94l9QdzFIB3vsX_Z2-159" value="owns" style="rhombus;whiteSpace=wrap;html=1;" parent="1" vertex="1">
          <mxGeometry x="970" y="70" width="140" height="80" as="geometry" />
        </mxCell>
        <mxCell id="X4g94l9QdzFIB3vsX_Z2-163" value="" style="curved=1;endArrow=none;html=1;rounded=0;endFill=0;strokeWidth=3;" parent="1" edge="1">
          <mxGeometry width="50" height="50" relative="1" as="geometry">
            <mxPoint x="812" y="120" as="sourcePoint" />
            <mxPoint x="812" y="100" as="targetPoint" />
            <Array as="points">
              <mxPoint x="802" y="120" />
              <mxPoint x="802" y="100" />
            </Array>
          </mxGeometry>
        </mxCell>
        <mxCell id="X4g94l9QdzFIB3vsX_Z2-172" style="rounded=0;orthogonalLoop=1;jettySize=auto;html=1;endArrow=none;endFill=0;" parent="1" source="X4g94l9QdzFIB3vsX_Z2-167" target="X4g94l9QdzFIB3vsX_Z2-35" edge="1">
          <mxGeometry relative="1" as="geometry" />
        </mxCell>
        <mxCell id="X4g94l9QdzFIB3vsX_Z2-167" value="" style="rhombus;whiteSpace=wrap;html=1;" parent="1" vertex="1">
          <mxGeometry x="1213.5" y="241" width="175" height="100" as="geometry" />
        </mxCell>
        <mxCell id="X4g94l9QdzFIB3vsX_Z2-164" value="&lt;span style=&quot;font-size: 12px;&quot;&gt;IncludedIn&lt;/span&gt;" style="rhombus;whiteSpace=wrap;html=1;" parent="1" vertex="1">
          <mxGeometry x="1231.5" y="250" width="140" height="80" as="geometry" />
        </mxCell>
        <mxCell id="X4g94l9QdzFIB3vsX_Z2-170" value="Programme Course" style="rounded=0;whiteSpace=wrap;html=1;strokeWidth=3;" parent="1" vertex="1">
          <mxGeometry x="970" y="354.5" width="120" height="60" as="geometry" />
        </mxCell>
        <mxCell id="X4g94l9QdzFIB3vsX_Z2-168" style="edgeStyle=orthogonalEdgeStyle;rounded=0;orthogonalLoop=1;jettySize=auto;html=1;exitX=0.5;exitY=1;exitDx=0;exitDy=0;" parent="1" source="X4g94l9QdzFIB3vsX_Z2-164" target="X4g94l9QdzFIB3vsX_Z2-164" edge="1">
          <mxGeometry relative="1" as="geometry" />
        </mxCell>
        <mxCell id="X4g94l9QdzFIB3vsX_Z2-175" style="rounded=0;orthogonalLoop=1;jettySize=auto;html=1;endArrow=none;endFill=0;edgeStyle=orthogonalEdgeStyle;" parent="1" source="X4g94l9QdzFIB3vsX_Z2-173" target="X4g94l9QdzFIB3vsX_Z2-25" edge="1">
          <mxGeometry relative="1" as="geometry" />
        </mxCell>
        <mxCell id="X4g94l9QdzFIB3vsX_Z2-173" value="BelongsTo" style="rhombus;whiteSpace=wrap;html=1;" parent="1" vertex="1">
          <mxGeometry x="790" y="242" width="140" height="80" as="geometry" />
        </mxCell>
        <mxCell id="X4g94l9QdzFIB3vsX_Z2-178" style="edgeStyle=orthogonalEdgeStyle;rounded=0;orthogonalLoop=1;jettySize=auto;html=1;endArrow=none;endFill=0;" parent="1" source="X4g94l9QdzFIB3vsX_Z2-177" target="X4g94l9QdzFIB3vsX_Z2-1" edge="1">
          <mxGeometry relative="1" as="geometry" />
        </mxCell>
        <mxCell id="X4g94l9QdzFIB3vsX_Z2-182" style="edgeStyle=orthogonalEdgeStyle;rounded=0;orthogonalLoop=1;jettySize=auto;html=1;endArrow=none;endFill=0;" parent="1" source="X4g94l9QdzFIB3vsX_Z2-177" target="X4g94l9QdzFIB3vsX_Z2-194" edge="1">
          <mxGeometry relative="1" as="geometry">
            <mxPoint x="610" y="-265.2499999999998" as="targetPoint" />
            <Array as="points">
              <mxPoint x="670" y="-130" />
            </Array>
          </mxGeometry>
        </mxCell>
        <mxCell id="X4g94l9QdzFIB3vsX_Z2-177" value="examines" style="rhombus;whiteSpace=wrap;html=1;" parent="1" vertex="1">
          <mxGeometry x="375" y="-80" width="140" height="80" as="geometry" />
        </mxCell>
        <mxCell id="X4g94l9QdzFIB3vsX_Z2-179" value="" style="curved=1;endArrow=none;html=1;rounded=0;endFill=0;strokeWidth=3;" parent="1" edge="1">
          <mxGeometry width="50" height="50" relative="1" as="geometry">
            <mxPoint x="260" y="68" as="sourcePoint" />
            <mxPoint x="240" y="68" as="targetPoint" />
            <Array as="points">
              <mxPoint x="260" y="78" />
              <mxPoint x="240" y="78" />
            </Array>
          </mxGeometry>
        </mxCell>
        <mxCell id="X4g94l9QdzFIB3vsX_Z2-184" style="edgeStyle=orthogonalEdgeStyle;rounded=0;orthogonalLoop=1;jettySize=auto;html=1;exitX=0.5;exitY=1;exitDx=0;exitDy=0;" parent="1" edge="1">
          <mxGeometry relative="1" as="geometry">
            <mxPoint x="1261.5" y="-246.25" as="sourcePoint" />
            <mxPoint x="1261.5" y="-246.25" as="targetPoint" />
          </mxGeometry>
        </mxCell>
        <mxCell id="X4g94l9QdzFIB3vsX_Z2-185" value="" style="rhombus;whiteSpace=wrap;html=1;" parent="1" vertex="1">
          <mxGeometry x="1212.5" y="-315.25" width="175" height="100" as="geometry" />
        </mxCell>
        <mxCell id="X4g94l9QdzFIB3vsX_Z2-191" style="edgeStyle=orthogonalEdgeStyle;rounded=0;orthogonalLoop=1;jettySize=auto;html=1;endArrow=none;endFill=0;" parent="1" source="X4g94l9QdzFIB3vsX_Z2-186" target="X4g94l9QdzFIB3vsX_Z2-35" edge="1">
          <mxGeometry relative="1" as="geometry" />
        </mxCell>
        <mxCell id="X4g94l9QdzFIB3vsX_Z2-186" value="&lt;span style=&quot;font-size: 12px;&quot;&gt;hasExecution&lt;/span&gt;" style="rhombus;whiteSpace=wrap;html=1;" parent="1" vertex="1">
          <mxGeometry x="1230.5" y="-306.25" width="140" height="80" as="geometry" />
        </mxCell>
        <mxCell id="X4g94l9QdzFIB3vsX_Z2-187" style="edgeStyle=orthogonalEdgeStyle;rounded=0;orthogonalLoop=1;jettySize=auto;html=1;exitX=0.5;exitY=1;exitDx=0;exitDy=0;" parent="1" source="X4g94l9QdzFIB3vsX_Z2-186" target="X4g94l9QdzFIB3vsX_Z2-186" edge="1">
          <mxGeometry relative="1" as="geometry" />
        </mxCell>
        <mxCell id="X4g94l9QdzFIB3vsX_Z2-192" value="" style="rounded=0;whiteSpace=wrap;html=1;strokeWidth=3;" parent="1" vertex="1">
          <mxGeometry x="597.5" y="-308.25" width="145" height="85" as="geometry" />
        </mxCell>
        <mxCell id="X4g94l9QdzFIB3vsX_Z2-188" value="" style="curved=1;endArrow=none;html=1;rounded=0;endFill=0;strokeWidth=3;" parent="1" edge="1">
          <mxGeometry width="50" height="50" relative="1" as="geometry">
            <mxPoint x="1309.5" y="63" as="sourcePoint" />
            <mxPoint x="1289.5" y="63" as="targetPoint" />
            <Array as="points">
              <mxPoint x="1309.5" y="73" />
              <mxPoint x="1289.5" y="73" />
            </Array>
          </mxGeometry>
        </mxCell>
        <mxCell id="X4g94l9QdzFIB3vsX_Z2-194" value="Course Instance" style="rounded=0;whiteSpace=wrap;html=1;strokeWidth=3;" parent="1" vertex="1">
          <mxGeometry x="610" y="-295.25" width="120" height="60" as="geometry" />
        </mxCell>
        <mxCell id="X4g94l9QdzFIB3vsX_Z2-195" style="rounded=0;orthogonalLoop=1;jettySize=auto;html=1;endArrow=none;endFill=0;entryX=1;entryY=0.5;entryDx=0;entryDy=0;" parent="1" source="X4g94l9QdzFIB3vsX_Z2-196" target="X4g94l9QdzFIB3vsX_Z2-203" edge="1">
          <mxGeometry relative="1" as="geometry">
            <mxPoint x="1101.1127819548872" y="-115.24999999999977" as="targetPoint" />
          </mxGeometry>
        </mxCell>
        <mxCell id="X4g94l9QdzFIB3vsX_Z2-196" value="assistantHours" style="ellipse;whiteSpace=wrap;html=1;" parent="1" vertex="1">
          <mxGeometry x="1160" y="-110.75" width="120" height="50" as="geometry" />
        </mxCell>
        <mxCell id="X4g94l9QdzFIB3vsX_Z2-197" style="rounded=0;orthogonalLoop=1;jettySize=auto;html=1;endArrow=none;endFill=0;" parent="1" source="X4g94l9QdzFIB3vsX_Z2-198" edge="1">
          <mxGeometry relative="1" as="geometry">
            <mxPoint x="1056" y="-115.24999999999977" as="targetPoint" />
          </mxGeometry>
        </mxCell>
        <mxCell id="X4g94l9QdzFIB3vsX_Z2-198" value="seniorHours" style="ellipse;whiteSpace=wrap;html=1;" parent="1" vertex="1">
          <mxGeometry x="996" y="-15" width="120" height="50" as="geometry" />
        </mxCell>
        <mxCell id="X4g94l9QdzFIB3vsX_Z2-201" style="edgeStyle=orthogonalEdgeStyle;rounded=0;orthogonalLoop=1;jettySize=auto;html=1;exitX=0.5;exitY=1;exitDx=0;exitDy=0;" parent="1" edge="1">
          <mxGeometry relative="1" as="geometry">
            <mxPoint x="920" y="-160" as="sourcePoint" />
            <mxPoint x="920" y="-160" as="targetPoint" />
          </mxGeometry>
        </mxCell>
        <mxCell id="X4g94l9QdzFIB3vsX_Z2-202" value="" style="rounded=0;whiteSpace=wrap;html=1;strokeWidth=3;" parent="1" vertex="1">
          <mxGeometry x="983.5" y="-128.25" width="145" height="85" as="geometry" />
        </mxCell>
        <mxCell id="X4g94l9QdzFIB3vsX_Z2-203" value="Course Planning" style="rounded=0;whiteSpace=wrap;html=1;strokeWidth=3;" parent="1" vertex="1">
          <mxGeometry x="996" y="-115.25" width="120" height="60" as="geometry" />
        </mxCell>
        <mxCell id="X4g94l9QdzFIB3vsX_Z2-205" style="rounded=0;orthogonalLoop=1;jettySize=auto;html=1;endArrow=none;endFill=0;" parent="1" source="X4g94l9QdzFIB3vsX_Z2-204" target="X4g94l9QdzFIB3vsX_Z2-202" edge="1">
          <mxGeometry relative="1" as="geometry" />
        </mxCell>
        <mxCell id="X4g94l9QdzFIB3vsX_Z2-204" value="planningNumStudents" style="ellipse;whiteSpace=wrap;html=1;" parent="1" vertex="1">
          <mxGeometry x="840" y="-110.25" width="120" height="50" as="geometry" />
        </mxCell>
        <mxCell id="X4g94l9QdzFIB3vsX_Z2-206" style="edgeStyle=orthogonalEdgeStyle;rounded=0;orthogonalLoop=1;jettySize=auto;html=1;exitX=0.5;exitY=1;exitDx=0;exitDy=0;" parent="1" edge="1">
          <mxGeometry relative="1" as="geometry">
            <mxPoint x="849" y="-181" as="sourcePoint" />
            <mxPoint x="849" y="-181" as="targetPoint" />
          </mxGeometry>
        </mxCell>
        <mxCell id="X4g94l9QdzFIB3vsX_Z2-212" style="edgeStyle=orthogonalEdgeStyle;rounded=0;orthogonalLoop=1;jettySize=auto;html=1;endArrow=classic;endFill=1;endSize=13;" parent="1" source="X4g94l9QdzFIB3vsX_Z2-207" target="X4g94l9QdzFIB3vsX_Z2-202" edge="1">
          <mxGeometry relative="1" as="geometry" />
        </mxCell>
        <mxCell id="X4g94l9QdzFIB3vsX_Z2-207" value="" style="rhombus;whiteSpace=wrap;html=1;" parent="1" vertex="1">
          <mxGeometry x="800" y="-250" width="175" height="100" as="geometry" />
        </mxCell>
        <mxCell id="X4g94l9QdzFIB3vsX_Z2-208" value="&lt;span style=&quot;font-size: 12px;&quot;&gt;hasPlan&lt;/span&gt;" style="rhombus;whiteSpace=wrap;html=1;" parent="1" vertex="1">
          <mxGeometry x="818" y="-241" width="140" height="80" as="geometry" />
        </mxCell>
        <mxCell id="X4g94l9QdzFIB3vsX_Z2-209" style="edgeStyle=orthogonalEdgeStyle;rounded=0;orthogonalLoop=1;jettySize=auto;html=1;exitX=0.5;exitY=1;exitDx=0;exitDy=0;" parent="1" source="X4g94l9QdzFIB3vsX_Z2-208" target="X4g94l9QdzFIB3vsX_Z2-208" edge="1">
          <mxGeometry relative="1" as="geometry" />
        </mxCell>
        <mxCell id="X4g94l9QdzFIB3vsX_Z2-210" value="" style="curved=1;endArrow=none;html=1;rounded=0;endFill=0;strokeWidth=3;" parent="1" edge="1">
          <mxGeometry width="50" height="50" relative="1" as="geometry">
            <mxPoint x="720" y="-211" as="sourcePoint" />
            <mxPoint x="700" y="-211.25" as="targetPoint" />
            <Array as="points">
              <mxPoint x="720" y="-221.25" />
              <mxPoint x="700" y="-221.25" />
            </Array>
          </mxGeometry>
        </mxCell>
        <mxCell id="X4g94l9QdzFIB3vsX_Z2-216" style="edgeStyle=orthogonalEdgeStyle;rounded=0;orthogonalLoop=1;jettySize=auto;html=1;exitX=0.5;exitY=1;exitDx=0;exitDy=0;" parent="1" edge="1">
          <mxGeometry relative="1" as="geometry">
            <mxPoint x="299" y="-246.25" as="sourcePoint" />
            <mxPoint x="299" y="-246.25" as="targetPoint" />
          </mxGeometry>
        </mxCell>
        <mxCell id="X4g94l9QdzFIB3vsX_Z2-227" style="edgeStyle=orthogonalEdgeStyle;rounded=0;orthogonalLoop=1;jettySize=auto;html=1;endArrow=none;endFill=0;" parent="1" source="X4g94l9QdzFIB3vsX_Z2-217" target="X4g94l9QdzFIB3vsX_Z2-192" edge="1">
          <mxGeometry relative="1" as="geometry" />
        </mxCell>
        <mxCell id="X4g94l9QdzFIB3vsX_Z2-217" value="" style="rhombus;whiteSpace=wrap;html=1;" parent="1" vertex="1">
          <mxGeometry x="250" y="-315.25" width="175" height="100" as="geometry" />
        </mxCell>
        <mxCell id="X4g94l9QdzFIB3vsX_Z2-218" value="&lt;span style=&quot;font-size: 12px;&quot;&gt;given&lt;/span&gt;" style="rhombus;whiteSpace=wrap;html=1;" parent="1" vertex="1">
          <mxGeometry x="268" y="-306.25" width="140" height="80" as="geometry" />
        </mxCell>
        <mxCell id="X4g94l9QdzFIB3vsX_Z2-219" style="edgeStyle=orthogonalEdgeStyle;rounded=0;orthogonalLoop=1;jettySize=auto;html=1;exitX=0.5;exitY=1;exitDx=0;exitDy=0;" parent="1" source="X4g94l9QdzFIB3vsX_Z2-218" target="X4g94l9QdzFIB3vsX_Z2-218" edge="1">
          <mxGeometry relative="1" as="geometry" />
        </mxCell>
        <mxCell id="X4g94l9QdzFIB3vsX_Z2-221" style="rounded=0;orthogonalLoop=1;jettySize=auto;html=1;endArrow=none;endFill=0;" parent="1" source="X4g94l9QdzFIB3vsX_Z2-220" target="X4g94l9QdzFIB3vsX_Z2-225" edge="1">
          <mxGeometry relative="1" as="geometry">
            <mxPoint x="41.39830508474574" y="-327.75" as="targetPoint" />
          </mxGeometry>
        </mxCell>
        <mxCell id="X4g94l9QdzFIB3vsX_Z2-220" value="&lt;font face=&quot;Helvetica&quot;&gt;&lt;u&gt;teacherId&lt;/u&gt;&lt;/font&gt;" style="ellipse;whiteSpace=wrap;html=1;" parent="1" vertex="1">
          <mxGeometry x="-160" y="-250" width="120" height="50" as="geometry" />
        </mxCell>
        <mxCell id="X4g94l9QdzFIB3vsX_Z2-224" value="" style="rounded=0;whiteSpace=wrap;html=1;strokeWidth=3;" parent="1" vertex="1">
          <mxGeometry x="5" y="-308.75" width="145" height="85" as="geometry" />
        </mxCell>
        <mxCell id="X4g94l9QdzFIB3vsX_Z2-225" value="Assigned Hours" style="rounded=0;whiteSpace=wrap;html=1;strokeWidth=3;" parent="1" vertex="1">
          <mxGeometry x="17.5" y="-296.25" width="120" height="60" as="geometry" />
        </mxCell>
        <mxCell id="X4g94l9QdzFIB3vsX_Z2-228" value="" style="curved=1;endArrow=none;html=1;rounded=0;endFill=0;strokeWidth=3;" parent="1" edge="1">
          <mxGeometry width="50" height="50" relative="1" as="geometry">
            <mxPoint x="585" y="-255.75" as="sourcePoint" />
            <mxPoint x="585" y="-276.75" as="targetPoint" />
            <Array as="points">
              <mxPoint x="595" y="-255.75" />
              <mxPoint x="595" y="-275.75" />
            </Array>
          </mxGeometry>
        </mxCell>
        <mxCell id="X4g94l9QdzFIB3vsX_Z2-229" style="rounded=0;orthogonalLoop=1;jettySize=auto;html=1;endArrow=none;endFill=0;" parent="1" source="X4g94l9QdzFIB3vsX_Z2-230" target="X4g94l9QdzFIB3vsX_Z2-234" edge="1">
          <mxGeometry relative="1" as="geometry">
            <mxPoint x="17.5" y="-524.9330985915494" as="targetPoint" />
          </mxGeometry>
        </mxCell>
        <mxCell id="X4g94l9QdzFIB3vsX_Z2-230" value="hours" style="ellipse;whiteSpace=wrap;html=1;" parent="1" vertex="1">
          <mxGeometry x="-160" y="-520" width="120" height="50" as="geometry" />
        </mxCell>
        <mxCell id="X4g94l9QdzFIB3vsX_Z2-231" style="rounded=0;orthogonalLoop=1;jettySize=auto;html=1;endArrow=none;endFill=0;" parent="1" source="X4g94l9QdzFIB3vsX_Z2-232" target="X4g94l9QdzFIB3vsX_Z2-234" edge="1">
          <mxGeometry relative="1" as="geometry">
            <mxPoint x="41.39830508474574" y="-517.75" as="targetPoint" />
          </mxGeometry>
        </mxCell>
        <mxCell id="X4g94l9QdzFIB3vsX_Z2-232" value="&lt;font face=&quot;Helvetica&quot;&gt;&lt;u&gt;teacherId&lt;/u&gt;&lt;/font&gt;" style="ellipse;whiteSpace=wrap;html=1;" parent="1" vertex="1">
          <mxGeometry x="-160" y="-440" width="120" height="50" as="geometry" />
        </mxCell>
        <mxCell id="X4g94l9QdzFIB3vsX_Z2-239" style="edgeStyle=orthogonalEdgeStyle;rounded=0;orthogonalLoop=1;jettySize=auto;html=1;" parent="1" source="X4g94l9QdzFIB3vsX_Z2-233" target="X4g94l9QdzFIB3vsX_Z2-237" edge="1">
          <mxGeometry relative="1" as="geometry" />
        </mxCell>
        <mxCell id="X4g94l9QdzFIB3vsX_Z2-233" value="" style="rounded=0;whiteSpace=wrap;html=1;strokeWidth=3;" parent="1" vertex="1">
          <mxGeometry x="5" y="-498.75" width="145" height="85" as="geometry" />
        </mxCell>
        <mxCell id="X4g94l9QdzFIB3vsX_Z2-234" value="Reported Hours" style="rounded=0;whiteSpace=wrap;html=1;strokeWidth=3;" parent="1" vertex="1">
          <mxGeometry x="17.5" y="-486.25" width="120" height="60" as="geometry" />
        </mxCell>
        <mxCell id="X4g94l9QdzFIB3vsX_Z2-235" style="edgeStyle=orthogonalEdgeStyle;rounded=0;orthogonalLoop=1;jettySize=auto;html=1;exitX=0.5;exitY=1;exitDx=0;exitDy=0;" parent="1" edge="1">
          <mxGeometry relative="1" as="geometry">
            <mxPoint x="389" y="-437.25" as="sourcePoint" />
            <mxPoint x="389" y="-437.25" as="targetPoint" />
          </mxGeometry>
        </mxCell>
        <mxCell id="X4g94l9QdzFIB3vsX_Z2-240" style="edgeStyle=orthogonalEdgeStyle;rounded=0;orthogonalLoop=1;jettySize=auto;html=1;entryX=0.115;entryY=0.026;entryDx=0;entryDy=0;entryPerimeter=0;endArrow=none;endFill=0;" parent="1" source="X4g94l9QdzFIB3vsX_Z2-236" target="X4g94l9QdzFIB3vsX_Z2-192" edge="1">
          <mxGeometry relative="1" as="geometry" />
        </mxCell>
        <mxCell id="X4g94l9QdzFIB3vsX_Z2-236" value="" style="rhombus;whiteSpace=wrap;html=1;" parent="1" vertex="1">
          <mxGeometry x="340" y="-506.25" width="175" height="100" as="geometry" />
        </mxCell>
        <mxCell id="X4g94l9QdzFIB3vsX_Z2-237" value="&lt;span style=&quot;font-size: 12px;&quot;&gt;given&lt;/span&gt;" style="rhombus;whiteSpace=wrap;html=1;" parent="1" vertex="1">
          <mxGeometry x="358" y="-497.25" width="140" height="80" as="geometry" />
        </mxCell>
        <mxCell id="X4g94l9QdzFIB3vsX_Z2-238" style="edgeStyle=orthogonalEdgeStyle;rounded=0;orthogonalLoop=1;jettySize=auto;html=1;exitX=0.5;exitY=1;exitDx=0;exitDy=0;" parent="1" source="X4g94l9QdzFIB3vsX_Z2-237" target="X4g94l9QdzFIB3vsX_Z2-237" edge="1">
          <mxGeometry relative="1" as="geometry" />
        </mxCell>
        <mxCell id="X4g94l9QdzFIB3vsX_Z2-241" value="" style="curved=1;endArrow=none;html=1;rounded=0;endFill=0;strokeWidth=3;" parent="1" edge="1">
          <mxGeometry width="50" height="50" relative="1" as="geometry">
            <mxPoint x="624" y="-320.75" as="sourcePoint" />
            <mxPoint x="604" y="-320.75" as="targetPoint" />
            <Array as="points">
              <mxPoint x="624" y="-310.75" />
              <mxPoint x="604" y="-310.75" />
            </Array>
          </mxGeometry>
        </mxCell>
        <mxCell id="X4g94l9QdzFIB3vsX_Z2-245" style="edgeStyle=orthogonalEdgeStyle;rounded=0;orthogonalLoop=1;jettySize=auto;html=1;endArrow=none;endFill=0;" parent="1" source="X4g94l9QdzFIB3vsX_Z2-242" target="X4g94l9QdzFIB3vsX_Z2-50" edge="1">
          <mxGeometry relative="1" as="geometry" />
        </mxCell>
        <mxCell id="X4g94l9QdzFIB3vsX_Z2-242" value="enrollsIn" style="rhombus;whiteSpace=wrap;html=1;" parent="1" vertex="1">
          <mxGeometry x="957.5" y="504.5" width="140" height="80" as="geometry" />
        </mxCell>
        <mxCell id="X4g94l9QdzFIB3vsX_Z2-251" value="" style="rounded=0;whiteSpace=wrap;html=1;strokeWidth=3;" parent="1" vertex="1">
          <mxGeometry x="365" y="505.75" width="145" height="85" as="geometry" />
        </mxCell>
        <mxCell id="X4g94l9QdzFIB3vsX_Z2-252" value="Registration" style="rounded=0;whiteSpace=wrap;html=1;strokeWidth=3;" parent="1" vertex="1">
          <mxGeometry x="377.5" y="518.25" width="120" height="60" as="geometry" />
        </mxCell>
        <mxCell id="X4g94l9QdzFIB3vsX_Z2-253" style="edgeStyle=orthogonalEdgeStyle;rounded=0;orthogonalLoop=1;jettySize=auto;html=1;exitX=0.5;exitY=1;exitDx=0;exitDy=0;" parent="1" edge="1">
          <mxGeometry relative="1" as="geometry">
            <mxPoint x="724" y="562.75" as="sourcePoint" />
            <mxPoint x="724" y="562.75" as="targetPoint" />
          </mxGeometry>
        </mxCell>
        <mxCell id="X4g94l9QdzFIB3vsX_Z2-259" style="rounded=0;orthogonalLoop=1;jettySize=auto;html=1;entryX=0.991;entryY=0.399;entryDx=0;entryDy=0;endArrow=none;endFill=0;entryPerimeter=0;" parent="1" source="X4g94l9QdzFIB3vsX_Z2-254" target="X4g94l9QdzFIB3vsX_Z2-251" edge="1">
          <mxGeometry relative="1" as="geometry" />
        </mxCell>
        <mxCell id="X4g94l9QdzFIB3vsX_Z2-254" value="" style="rhombus;whiteSpace=wrap;html=1;" parent="1" vertex="1">
          <mxGeometry x="675" y="493.75" width="175" height="100" as="geometry" />
        </mxCell>
        <mxCell id="X4g94l9QdzFIB3vsX_Z2-255" value="&lt;span style=&quot;font-size: 12px;&quot;&gt;register&lt;/span&gt;" style="rhombus;whiteSpace=wrap;html=1;" parent="1" vertex="1">
          <mxGeometry x="693" y="502.75" width="140" height="80" as="geometry" />
        </mxCell>
        <mxCell id="X4g94l9QdzFIB3vsX_Z2-256" style="edgeStyle=orthogonalEdgeStyle;rounded=0;orthogonalLoop=1;jettySize=auto;html=1;exitX=0.5;exitY=1;exitDx=0;exitDy=0;" parent="1" source="X4g94l9QdzFIB3vsX_Z2-255" target="X4g94l9QdzFIB3vsX_Z2-255" edge="1">
          <mxGeometry relative="1" as="geometry" />
        </mxCell>
        <mxCell id="X4g94l9QdzFIB3vsX_Z2-258" value="" style="curved=1;endArrow=none;html=1;rounded=0;endFill=0;strokeWidth=3;" parent="1" edge="1">
          <mxGeometry width="50" height="50" relative="1" as="geometry">
            <mxPoint x="954.5" y="715" as="sourcePoint" />
            <mxPoint x="954.5" y="695" as="targetPoint" />
            <Array as="points">
              <mxPoint x="964.5" y="715" />
              <mxPoint x="964.5" y="695" />
            </Array>
          </mxGeometry>
        </mxCell>
        <mxCell id="X4g94l9QdzFIB3vsX_Z2-263" style="rounded=0;orthogonalLoop=1;jettySize=auto;html=1;endArrow=none;endFill=0;" parent="1" source="X4g94l9QdzFIB3vsX_Z2-260" target="X4g94l9QdzFIB3vsX_Z2-251" edge="1">
          <mxGeometry relative="1" as="geometry">
            <mxPoint x="370" y="570" as="targetPoint" />
          </mxGeometry>
        </mxCell>
        <mxCell id="X4g94l9QdzFIB3vsX_Z2-260" value="&lt;font face=&quot;Helvetica&quot;&gt;&lt;u&gt;instanceId&lt;/u&gt;&lt;/font&gt;" style="ellipse;whiteSpace=wrap;html=1;" parent="1" vertex="1">
          <mxGeometry x="190" y="585" width="120" height="50" as="geometry" />
        </mxCell>
        <mxCell id="IT_xZYxQ61ZV-D8Yhbmj-2" style="edgeStyle=orthogonalEdgeStyle;rounded=0;orthogonalLoop=1;jettySize=auto;html=1;entryX=0.182;entryY=0.997;entryDx=0;entryDy=0;entryPerimeter=0;endArrow=none;endFill=0;" edge="1" parent="1" source="X4g94l9QdzFIB3vsX_Z2-268" target="X4g94l9QdzFIB3vsX_Z2-192">
          <mxGeometry relative="1" as="geometry">
            <Array as="points">
              <mxPoint x="-65" y="-130" />
              <mxPoint x="301" y="-130" />
              <mxPoint x="301" y="-180" />
              <mxPoint x="620" y="-180" />
              <mxPoint x="620" y="-223" />
            </Array>
          </mxGeometry>
        </mxCell>
        <mxCell id="X4g94l9QdzFIB3vsX_Z2-268" value="workIn" style="rhombus;whiteSpace=wrap;html=1;" parent="1" vertex="1">
          <mxGeometry x="-135" y="-43.25" width="140" height="80" as="geometry" />
        </mxCell>
        <mxCell id="X4g94l9QdzFIB3vsX_Z2-272" value="" style="curved=1;endArrow=none;html=1;rounded=0;endFill=0;strokeWidth=3;" parent="1" edge="1">
          <mxGeometry width="50" height="50" relative="1" as="geometry">
            <mxPoint x="1310" y="148" as="sourcePoint" />
            <mxPoint x="1290" y="148" as="targetPoint" />
            <Array as="points">
              <mxPoint x="1310" y="138" />
              <mxPoint x="1290" y="138" />
            </Array>
          </mxGeometry>
        </mxCell>
        <mxCell id="vMZWVRKSpwG09A7T4zyu-1" style="edgeStyle=orthogonalEdgeStyle;rounded=0;orthogonalLoop=1;jettySize=auto;html=1;entryX=0.014;entryY=0.474;entryDx=0;entryDy=0;entryPerimeter=0;endArrow=none;endFill=0;" parent="1" source="X4g94l9QdzFIB3vsX_Z2-192" target="X4g94l9QdzFIB3vsX_Z2-207" edge="1">
          <mxGeometry relative="1" as="geometry">
            <Array as="points">
              <mxPoint x="710" y="-200" />
              <mxPoint x="803" y="-200" />
            </Array>
          </mxGeometry>
        </mxCell>
        <mxCell id="IT_xZYxQ61ZV-D8Yhbmj-1" value="ISA" style="triangle;whiteSpace=wrap;html=1;direction=north;" vertex="1" parent="1">
          <mxGeometry x="-370" y="85" width="80" height="60" as="geometry" />
        </mxCell>
        <mxCell id="IT_xZYxQ61ZV-D8Yhbmj-4" style="edgeStyle=orthogonalEdgeStyle;rounded=0;orthogonalLoop=1;jettySize=auto;html=1;entryX=0.01;entryY=0.585;entryDx=0;entryDy=0;entryPerimeter=0;endArrow=none;endFill=0;" edge="1" parent="1" source="IT_xZYxQ61ZV-D8Yhbmj-1" target="X4g94l9QdzFIB3vsX_Z2-1">
          <mxGeometry relative="1" as="geometry" />
        </mxCell>
      </root>
    </mxGraphModel>
  </diagram>
</mxfile>
